<svg xmlns="http://www.w3.org/2000/svg" viewBox="0 0 140.94 40.49"><defs><style>.cls-1{fill:#fff;}.cls-2{fill:#b00069;}.cls-3{fill:#006f3b;}.cls-4{fill:#007dc4;}</style></defs><g id="Layer_2" data-name="Layer 2"><g id="Header"><g id="Header-2" data-name="Header"><g id="logo"><path class="cls-1" d="M100,20.84H90.34V18.4c0-1.55,2.26-4.85,4-4.85,2.5,0,2.13,4.51,5.17,5.08H100ZM95,11.72c-.38-.35-.75-.69-1.09-1a13.47,13.47,0,0,1-1.09,1A15.82,15.82,0,0,1,91.6,10.6l1.12-1.12a14.61,14.61,0,0,1,1.15,1.09L95,9.48a8.23,8.23,0,0,1,1.17,1.12A15.64,15.64,0,0,1,95,11.72M94,15.85c-.78,0-1.75,2-1.75,2.64H94.1c.17,0,.34.11.51.11h1.12l.06-.14c-.23-.58-1.06-2.61-1.75-2.61"/><rect class="cls-1" x="99.34" y="18.6" width="3.84" height="2.24"/><path class="cls-1" d="M103,20.84V18.57l0-.11-1.15-2.33a14.49,14.49,0,0,1,1.2-1.46l1.87,3.9h1.75l0-.14c-.31-.78-.63-1.55-1-2.3L107,14.67c.75.86,1.21,2.81,1.61,3.9h2l0-.14a14.63,14.63,0,0,0-1.29-3.36c.48-.46.94-.94,1.43-1.37a39.21,39.21,0,0,1,1.52,4.93h1.29v2.21Z"/><path class="cls-1" d="M119.91,20.84h-7.23V18.63h4.45a.32.32,0,0,0,.2-.26c0-.26-1-2.87-1.09-3.27l1.46-1.49c.55,1.69.83,3.33,1.24,5h1Zm-2.21,3.58a13.54,13.54,0,0,1-1.09-1.06,9.1,9.1,0,0,1-1.09,1.06c-.4-.34-.74-.71-1.12-1.06a11.6,11.6,0,0,1,1.12-1.2l1.09,1.09,1.09-1.09a12.56,12.56,0,0,1,1.18,1.12c-.37.4-.78.77-1.18,1.14"/><path class="cls-1" d="M131.64,20.84h-12.5V18.63h2.52c1.84-1.06,1.61-5,4.42-5,3,0,2.24,4.64,5,5h.57Zm-3.84-2.5a17.12,17.12,0,0,0-1.18-2.27.6.6,0,0,0-.48-.17c-.78,0-2,1.78-2.18,2.47a6.52,6.52,0,0,1,.8-.06c.83,0,1.69.29,2.52.29a1.51,1.51,0,0,0,.52-.06Z"/><path class="cls-1" d="M131,20.84V18.63h5.91c-.92-.63-2.41-3.07-3.18-3.07a1.55,1.55,0,0,0-1.06.63v-.31c0-1.27.2-2.67,1.83-2.67,2.35,0,3.7,5.74,6.43,5.39v2.24ZM134.6,12a15.82,15.82,0,0,1-1.18-1.12,11.39,11.39,0,0,1,1.12-1.18c.4.35.8.72,1.18,1.12-.32.43-.75.77-1.12,1.18"/><path class="cls-1" d="M91.7,28.8a1.5,1.5,0,0,1-1.56-1.45,2.68,2.68,0,0,1,.55-1.64l.46.46c0,.08-.21.71-.21.75a1,1,0,0,0,1.08.9h3.9l.06-.15-.48-1.5.7-.7a8.84,8.84,0,0,1,.5,2.31h.62v1ZM93.81,25c-.19-.15-.34-.32-.51-.48a5.88,5.88,0,0,1-.51.48c-.2-.18-.37-.35-.54-.52l.52-.54a6.53,6.53,0,0,1,.53.52l.51-.52.52.52a3.8,3.8,0,0,1-.52.54"/><path class="cls-1" d="M98.47,25.16A4.24,4.24,0,0,1,100,27.78v1H97.08v-1h2.13A3.21,3.21,0,0,0,98,26c-.15-.09-.35-.12-.35-.34a3.09,3.09,0,0,1,.11-.75,18.8,18.8,0,0,1,2.59-2.5v.91Z"/><path class="cls-1" d="M101.15,30.87h-.39l-.24-.61a1.86,1.86,0,0,0,1.71-1.64,3.37,3.37,0,0,0-.61-1.52l.57-.94c.63,1,1,1.19,1,2.39a2.39,2.39,0,0,1-2,2.32"/><polygon class="cls-1" points="103.9 28.8 103.74 22.42 104.59 22.42 104.75 27.78 105.39 27.78 105.39 28.8 103.9 28.8"/><path class="cls-1" d="M105.07,28.8v-1h.83c1.22,0,1.07-2.37,2.38-2.37,1.12,0,1.33,1.6,1.89,2.37v1Zm4.09-1.16c0-.2-.59-1.19-.86-1.19s-.9.88-.9,1.22a3.16,3.16,0,0,1,.32,0c.41,0,.81.12,1.21.12a.86.86,0,0,0,.23,0Z"/><path class="cls-1" d="M30.82,25.65a2.86,2.86,0,0,0-.17.53h0a2,2,0,0,0-.19-.54l-1.16-2.38H28.16v4.57h1V25.17a2.34,2.34,0,0,0,.25.76l.91,1.9h.52l.91-2a3.19,3.19,0,0,0,.24-.65v2.65h1V23.26H31.9Z"/><path class="cls-1" d="M34.37,23.26v.89h.44l-1.2,3.68h1.24l.24-.83h1.53l.27.83h1.32l-1.65-4.57Zm1,2.89.32-1.1a3.49,3.49,0,0,0,.14-.69h0a2.38,2.38,0,0,0,.17.69l.35,1.1Z"/><path class="cls-1" d="M42.09,26.74l-.37-.58a1.41,1.41,0,0,0,.86-1.41,1.32,1.32,0,0,0-.67-1.23,2.83,2.83,0,0,0-1.42-.26H38.32v.89h.46v3.68H40V26.32h.34l.51.81a1.88,1.88,0,0,0,.5.58,1.22,1.22,0,0,0,.73.2,1.66,1.66,0,0,0,.68-.16l.08-.83a.7.7,0,0,1-.36.11C42.33,27,42.22,27,42.09,26.74Zm-1.51-1.21H40V24.15h.37a1,1,0,0,1,.7.17.71.71,0,0,1,.16.5C41.27,25.31,41.08,25.53,40.58,25.53Z"/><path class="cls-1" d="M46.86,26.69l-.64-1.22,1.17-2.21H46.12l-.89,1.8h-.48v-1.8H43.49v4.57h1.26V26.08h.42l.46,1a1.28,1.28,0,0,0,1.18.88,1.71,1.71,0,0,0,.73-.17l.08-.79a.63.63,0,0,1-.29.08C47.09,27,47,26.92,46.86,26.69Z"/><polygon class="cls-1" points="49.43 25.96 50.9 25.96 50.9 25.07 49.43 25.07 49.43 24.15 51.23 24.15 51.23 23.26 48.17 23.26 48.17 27.83 51.34 27.83 51.4 26.95 49.43 26.95 49.43 25.96"/><polygon class="cls-1" points="51.79 23.26 51.79 24.15 53.08 24.15 53.08 27.83 54.35 27.83 54.35 24.15 55.64 24.15 55.64 23.26 51.79 23.26"/><path class="cls-1" d="M6.12,18.8,5,16.6l2.11-4H4.78L3.16,15.85H2.29V12.59H0v8.29H2.29V17.7h.76l.84,1.72A2.3,2.3,0,0,0,6,21a3,3,0,0,0,1.33-.32l.14-1.42a1.1,1.1,0,0,1-.52.14C6.54,19.43,6.34,19.23,6.12,18.8Z"/><polygon class="cls-1" points="13.24 15.85 10.78 15.85 10.78 12.59 8.49 12.59 8.49 20.88 10.78 20.88 10.78 17.65 13.24 17.65 13.24 20.88 15.53 20.88 15.53 12.59 13.24 12.59 13.24 15.85"/><path class="cls-1" d="M22.08,16.92a4.31,4.31,0,0,0-.31,1h0a4.68,4.68,0,0,0-.36-1l-2.09-4.31H17.25v8.29h1.89V16.05a4.93,4.93,0,0,0,.44,1.39l1.65,3.44h1l1.65-3.62a5.73,5.73,0,0,0,.43-1.2v4.82h1.9V12.59H24Z"/><polygon class="cls-1" points="27.7 13.84 28.51 13.84 28.51 19.69 27.7 19.69 27.7 20.88 31.67 20.88 31.67 19.69 30.81 19.69 30.81 13.84 31.67 13.84 31.67 12.59 27.7 12.59 27.7 13.84"/><path class="cls-1" d="M35.25,14.89c0-.54.57-.78,1.35-.78a6.26,6.26,0,0,1,2,.41l.08-1.72a8.57,8.57,0,0,0-2.34-.36c-1.68,0-3.36.74-3.36,2.76,0,3.17,4.1,2.07,4.1,3.42,0,.55-.56.71-1.2.71a6,6,0,0,1-2.62-.71l-.11,1.87a7.55,7.55,0,0,0,3,.55c1.67,0,3.21-.77,3.21-2.73C39.33,15.15,35.25,16.16,35.25,14.89Z"/><path class="cls-1" d="M42.67,14.89c0-.54.58-.78,1.35-.78a6.32,6.32,0,0,1,2,.41l.08-1.72a8.64,8.64,0,0,0-2.35-.36c-1.67,0-3.35.74-3.35,2.76,0,3.17,4.1,2.07,4.1,3.42,0,.55-.56.71-1.21.71a5.94,5.94,0,0,1-2.61-.71l-.11,1.87a7.55,7.55,0,0,0,3,.55c1.66,0,3.21-.77,3.21-2.73C46.76,15.15,42.67,16.16,42.67,14.89Z"/><path class="cls-1" d="M52.65,12.6h-4v1.61h.8L47.3,20.89h2.24L50,19.37h2.77l.49,1.52h2.4Zm-2.24,5.23.58-2a6.12,6.12,0,0,0,.26-1.24h0a5.26,5.26,0,0,0,.31,1.25l.64,2Z"/><path class="cls-2" d="M63.67,12.11a32.81,32.81,0,0,1,9.27,9.63,32.3,32.3,0,0,1,9.52-9.87V6.79C81.84,4,80.51,4,80.07,4a4,4,0,0,0-1.8.5l-2,1.16V3.36A3.17,3.17,0,0,0,72.91,0a3,3,0,0,0-3.22,3.23V5.57l-2-1.19a3.78,3.78,0,0,0-1.83-.62,1.85,1.85,0,0,0-1.56,1,4.7,4.7,0,0,0-.61,1.31Z"/><path class="cls-3" d="M73.68,23.06a26.4,26.4,0,0,1,2.48,17.16c5.68-.13,8.36-3.68,8.43-11.13V29c.32-4.51,1.59-7.37,4-8.91A6.1,6.1,0,0,0,84,17.94l-1.49.16V13.47a29.73,29.73,0,0,0-8.78,9.59"/><path class="cls-4" d="M61.86,31.44c.19,4.18,2.46,9.05,8.26,9.05a5.74,5.74,0,0,0,.71,0,6.25,6.25,0,0,0,1.73-.37l.32-.11.33.05c.55.08,1.1.14,1.64.17a25.15,25.15,0,0,0-2.48-16.82,30.05,30.05,0,0,0-8.7-9.65V18.3l-1.38,0h-.23a6.46,6.46,0,0,0-4.64,1.89,9.92,9.92,0,0,1,3.84,5.29,14.81,14.81,0,0,1,.6,6"/></g></g></g></g></svg>